<svg xmlns="http://www.w3.org/2000/svg" width="16" height="16" viewBox="0 0 16 16" fill="none">
<path d="M11.1956 9.06667C11.3232 8.72558 11.388 8.36418 11.3867 8C11.3867 7.19138 11.0655 6.41589 10.4937 5.84411C9.9219 5.27233 9.1464 4.95111 8.33779 4.95111C7.97809 4.95153 7.62137 5.01625 7.28445 5.14222L8.00001 5.88C8.10878 5.8626 8.21874 5.85368 8.3289 5.85333C8.90065 5.85214 9.44964 6.07722 9.85601 6.47942C10.2624 6.88162 10.4931 7.42827 10.4978 8C10.4974 8.11015 10.4885 8.22011 10.4711 8.32889L11.1956 9.06667Z" fill="#C7D2D6"/>
<path d="M15.24 7.79111C13.7422 5.02222 11.1156 3.34667 8.20889 3.34667C7.41749 3.34853 6.63141 3.47604 5.88 3.72445L6.59556 4.44445C7.12261 4.30824 7.66454 4.23807 8.20889 4.23556C10.7111 4.23556 12.9867 5.63111 14.3422 7.98222C13.845 8.85449 13.1858 9.62382 12.4 10.2489L13.0311 10.88C13.9405 10.1464 14.6957 9.24009 15.2533 8.21334L15.3689 8L15.24 7.79111Z" fill="#C7D2D6"/>
<path d="M2.16444 2.56889L4.14666 4.55111C2.89373 5.35783 1.86973 6.47367 1.17333 7.79111L1.05777 8L1.17333 8.21333C2.6711 10.9822 5.29777 12.6578 8.20443 12.6578C9.33895 12.6575 10.4587 12.4008 11.48 11.9067L13.7022 14.1289L14.48 13.4622L2.92444 1.90667L2.16444 2.56889ZM6.49777 6.90222L9.45332 9.85778C9.11938 10.0645 8.73495 10.1752 8.34221 10.1778C8.05685 10.1778 7.7743 10.1214 7.51082 10.0118C7.24735 9.90215 7.00815 9.74152 6.80699 9.53912C6.60582 9.33672 6.44667 9.09653 6.33868 8.83239C6.2307 8.56825 6.17601 8.28536 6.17777 8C6.18278 7.6118 6.2934 7.2323 6.49777 6.90222ZM5.85332 6.25778C5.43752 6.84418 5.24262 7.5588 5.30315 8.2751C5.36368 8.99141 5.67573 9.6632 6.18404 10.1715C6.69235 10.6798 7.36413 10.9919 8.08044 11.0524C8.79675 11.1129 9.51137 10.918 10.0978 10.5022L10.8089 11.2133C9.98567 11.5652 9.0997 11.7466 8.20443 11.7467C5.70221 11.7467 3.42666 10.3511 2.0711 8C2.72164 6.8481 3.65854 5.88364 4.7911 5.2L5.85332 6.25778Z" fill="#C7D2D6"/>
</svg>